:SAMPLES-PER-SECOND 30
:FULLY-SPECIFIED
:DEGREES
74
root  34.76197551 36.55791395 -14.3113339 9.647852898 -6.302883148 3.568061352
lowerback  -7.950520039 -0.8757779598 -1.226869702
upperback  -3.990250349 -0.5983750224 -3.619719982
thorax  0.3048099875 -0.1266839951 -3.095079899
lowerneck  -5.379859924 -14.66259956 -10.69890022
upperneck  10.0625 -19.98319817 10.88850021
head  6.094409943 -9.506569862 3.358819962
lclavicle  0 -4.497500157e-015 -2.743230041e-014
lhumerus  -48.09389877 29.78050041 63.10150146
lradius  0.006001632661 -6.507048965e-006 30.04799652
lwrist  4.824992743e-007 -3.790274832e-007 -28.55999947
lhand  -4.415889985e-031 -36.90420151 -10.68029976
lfingers  90 7.125020027 -90
lthumb  94.81915335 -25.51588605 101.0739958
rclavicle  0 -4.497500157e-015 -2.743230041e-014
rhumerus  -40.84569931 -28.80819893 -43.73420334
rradius  -5.16745672e-007 2.214343908e-008 119.887001
rwrist  -2.867388866e-005 0.1128110886 178.4859924
rhand  -1.76701974e-031 2.327069998 -7.994709969
rfingers  -90 -7.125020027 -90
rthumb  -85.75183725 -7.991852792 -61.88580688
rfemur  -11.83886337 15.10972118 12.358078
rtibia  -0.3093651235 -1.735896945 18.83419609
rfoot  1.506255031 -23.01090622 -33.52699661
rtoes  4.163994598 19.57911119 -102.2572719
lfemur  -5.380774498 -15.84390831 -22.04512787
ltibia  5.410459518 -0.7806512713 10.1182394
lfoot  0.7511402369 -21.64129066 37.17569351
ltoes  -8.567530048 -18.14029234 -115.8218057
75
root  34.76017629 36.55370277 -14.30765888 9.65986824 -6.30378294 3.581887007
lowerback  -7.964879513 -0.8668299317 -1.278259993
upperback  -3.987950087 -0.5812839866 -3.623950005
thorax  0.3197369874 -0.1170750037 -3.069279909
lowerneck  -5.382150173 -14.7244997 -10.72879982
upperneck  10.05200005 -20.06909943 10.91499996
head  6.106669903 -9.54736042 3.359210014
lclavicle  0 -4.497500157e-015 -2.743230041e-014
lhumerus  -48.04560089 29.79199982 63.1271019
lradius  0.006001632661 -6.507048965e-006 30.03560066
lwrist  4.824992743e-007 -3.790274832e-007 -28.64710045
lhand  -4.415334415e-031 -36.89459991 -10.69569969
lfingers  90 7.125020027 -90
lthumb  94.81795781 -25.53138087 101.0651898
rclavicle  0 -4.497500157e-015 -2.743230041e-014
rhumerus  -39.52159882 -29.19829941 -43.01819992
rradius  -5.16745672e-007 2.214343908e-008 120.0339966
rwrist  -2.867388866e-005 0.1128110886 178.2339935
rhand  -1.766973208e-031 2.28963995 -7.897699833
rfingers  -90 -7.125020027 -90
rthumb  -85.71348002 -8.074961342 -61.91569796
rfemur  -11.83347988 15.09339523 12.34076023
rtibia  -0.3053312898 -1.762345552 18.81914902
rfoot  1.503083467 -23.05749702 -33.53145981
rtoes  4.139797998 19.58404893 -102.1850753
lfemur  -5.363595963 -15.82434654 -22.06313705
ltibia  5.446326733 -0.7962650061 10.06950665
lfoot  0.7526662946 -21.58357048 37.14961624
ltoes  -8.547081499 -18.14968136 -115.756144
76
root  34.7565268 36.5481219 -14.30477533 9.671038628 -6.302726746 3.593695402
lowerback  -7.983610153 -0.8498100042 -1.268999577
upperback  -3.988929987 -0.5558350086 -3.653670073
thorax  0.3297030032 -0.1036790013 -3.103579998
lowerneck  -5.306099892 -14.78250027 -10.75370026
upperneck  9.962240219 -20.15230179 10.96700001
head  6.082970142 -9.590359688 3.374979973
lclavicle  0 -4.497500157e-015 -2.743230041e-014
lhumerus  -47.98249817 29.68959999 63.19260025
lradius  0.006001632661 -6.507048965e-006 30.05003357
lwrist  4.824992743e-007 -3.790274832e-007 -28.55680084
lhand  -4.418073762e-031 -36.94189835 -10.58399963
lfingers  90 7.125020027 -90
lthumb  94.81628686 -25.42009557 101.1054926
rclavicle  0 -4.497500157e-015 -2.743230041e-014
rhumerus  -38.32839966 -29.57220459 -42.32139587
rradius  -5.16745672e-007 2.214343908e-008 120.1959991
rwrist  -2.867388866e-005 0.1128110886 178.098999
rhand  -1.767278639e-031 2.525190115 -8.21088028
rfingers  -90 -7.125020027 -90
rthumb  -85.81407826 -7.814535013 -61.70727191
rfemur  -11.82424545 15.05006218 12.32497025
rtibia  -0.2997924685 -1.803856134 18.79977608
rfoot  1.495756388 -23.14107513 -33.52705002
rtoes  4.13326857 19.5853762 -102.1655961
lfemur  -5.382220745 -15.87940407 -22.06316185
ltibia  5.449330807 -0.8078165054 10.08098984
lfoot  0.7706781626 -21.56539917 37.19725037
ltoes  -8.534047592 -18.15565134 -115.7143083
77
root  34.75537638 36.54632568 -14.30249252 9.692092896 -6.302701473 3.601369858
lowerback  -7.980919838 -0.8278009892 -1.273640394
upperback  -3.998569965 -0.5230360031 -3.686880112
thorax  0.3193930089 -0.08619319648 -3.132800102
lowerneck  -5.231349945 -14.83390045 -10.76850033
upperneck  9.88988018 -20.22559929 10.99470043
head  6.060259819 -9.62928009 3.383110046
lclavicle  0 -4.497500157e-015 -2.743230041e-014
lhumerus  -47.96649933 29.70050049 63.15330124
lradius  0.006001632661 -6.507048965e-006 30.0463028
lwrist  4.824992743e-007 -3.790274832e-007 -28.61580086
lhand  -4.41882207e-031 -36.95479965 -10.59980011
lfingers  90 7.125020027 -90
lthumb  94.82563991 -25.43504802 101.1206674
rclavicle  0 -4.497500157e-015 -2.743230041e-014
rhumerus  -37.02659988 -30.11750031 -41.56549835
rradius  -5.16745672e-007 2.214343908e-008 120.0500031
rwrist  -2.867388866e-005 0.1128110886 177.6860046
rhand  -3.535098273e-031 2.716749907 -8.05976963
rfingers  -90 -7.125020027 -90
rthumb  -85.70183371 -7.960304467 -61.51090001
rfemur  -11.83251095 15.01650715 12.31474209
rtibia  -0.2978770733 -1.842078328 18.78912544
rfoot  1.493826151 -23.21732712 -33.50511169
rtoes  4.135504555 19.58492193 -102.1722665
lfemur  -5.421112061 -15.90672588 -22.05964661
ltibia  5.440252304 -0.8061523438 10.11081123
lfoot  0.7957444787 -21.58586311 37.24616623
ltoes  -8.548507898 -18.14902733 -115.7607232
78
root  34.75413886 36.54780651 -14.29969908 9.721986771 -6.305734158 3.612936497
lowerback  -7.95991993 -0.8154270053 -1.305540204
upperback  -4.005539894 -0.5039420128 -3.695869923
thorax  0.3017480075 -0.07580179721 -3.122359991
lowerneck  -5.208000183 -14.8689003 -10.76509953
upperneck  9.856320381 -20.27230072 10.9847002
head  6.049409866 -9.654270172 3.376339912
lclavicle  0 -4.497500157e-015 -2.743230041e-014
lhumerus  -47.92490005 29.66749954 63.17900085
lradius  0.006001632661 -6.507048965e-006 30.02769852
lwrist  4.824992743e-007 -3.790274832e-007 -28.64010048
lhand  -4.417146452e-031 -36.92589951 -10.65839958
lfingers  90 7.125020027 -90
lthumb  94.82462761 -25.49362004 101.0951321
rclavicle  0 -4.497500157e-015 -2.743230041e-014
rhumerus  -35.69169998 -30.30310059 -41.04750061
rradius  -5.16745672e-007 2.214343908e-008 120.197998
rwrist  -2.867388866e-005 0.1125366613 178.2879944
rhand  -1.767719639e-031 2.830820084 -7.771259785
rfingers  -90 -7.125020027 -90
rthumb  -85.53835829 -8.22128555 -61.38029063
rfemur  -11.8714819 15.00605965 12.302948
rtibia  -0.3083051741 -1.855311513 18.80994415
rfoot  1.490969777 -23.23475647 -33.48650742
rtoes  4.154345328 19.58108392 -102.2284788
lfemur  -5.408712387 -15.93115902 -22.08667564
ltibia  5.478217125 -0.8196430802 10.04666901
lfoot  0.788680613 -21.52347374 37.24532318
ltoes  -8.537614544 -18.15401868 -115.7257561
79
root  34.75202125 36.5496718 -14.29597299 9.738405228 -6.290262699 3.635548592
lowerback  -7.949869633 -0.8074389696 -1.320479989
upperback  -4.014279842 -0.4910399914 -3.707449913
thorax  0.2878029943 -0.06855329871 -3.124819994
lowerneck  -5.137380123 -14.90260029 -10.73770046
upperneck  9.759460449 -20.31809998 10.97859955
head  6.008649826 -9.68144989 3.373359919
lclavicle  0 -4.497500157e-015 -2.743230041e-014
lhumerus  -47.88330078 29.64649963 63.19680023
lradius  0.006001632661 -6.507048965e-006 30.00340271
lwrist  4.824992743e-007 -3.790274832e-007 -28.65040016
lhand  -0 -36.93180084 -10.66819954
lfingers  90 7.125020027 -90
lthumb  94.82949047 -25.50305286 101.1023513
rclavicle  0 -4.497500157e-015 -2.743230041e-014
rhumerus  -34.29349899 -30.60609627 -40.45629883
rradius  -5.16745672e-007 2.214343908e-008 120.0780029
rwrist  -2.867388866e-005 0.1122177988 178.6210022
rhand  -1.767803804e-031 2.8854599 -7.839839935
rfingers  -90 -7.125020027 -90
rthumb  -85.55987456 -8.164666812 -61.33184513
rfemur  -11.89765072 14.97312832 12.2917366
rtibia  -0.3226414323 -1.851933718 18.84056282
rfoot  1.489816904 -23.20940208 -33.45587158
rtoes  4.155870898 19.58077234 -102.2330308
lfemur  -5.358135223 -15.9081068 -22.13637733
ltibia  5.544942379 -0.8082296252 9.925139427
lfoot  0.7754419446 -21.49936104 37.20001984
ltoes  -8.54552519 -18.1503948 -115.7511479
80
root  34.74948312 36.55173835 -14.2924046 9.752351761 -6.268610001 3.641149998
lowerback  -7.94716835 -0.797450006 -1.332129836
upperback  -4.022190094 -0.4742580056 -3.732439995
thorax  0.2783379853 -0.05907959864 -3.142849922
lowerneck  -5.080480099 -14.95569992 -10.72049999
upperneck  9.674380302 -20.38980103 10.97060013
head  5.977509975 -9.720749855 3.366349936
lclavicle  0 -4.497500157e-015 -2.743230041e-014
lhumerus  -47.80830002 29.49150085 63.29439926
lradius  0.006001632661 -6.507048965e-006 30.00522614
lwrist  4.824992743e-007 -3.790274832e-007 -28.54800034
lhand  -0 -36.97650146 -10.65530014
lfingers  90 7.125020027 -90
lthumb  94.84770975 -25.48881061 101.1490482
rclavicle  0 -4.497500157e-015 -2.743230041e-014
rhumerus  -32.97200012 -31.07240105 -39.8689003
rradius  -5.16745672e-007 2.214343908e-008 119.8450012
rwrist  -2.867388866e-005 0.1118952259 178.5870056
rhand  -1.768154169e-031 3.10255003 -7.731339931
rfingers  -90 -7.125020027 -90
rthumb  -85.46040512 -8.273855007 -61.11298556
rfemur  -11.92556 14.97448635 12.29094219
rtibia  -0.3367899954 -1.82164669 18.87134552
rfoot  1.494700551 -23.13653374 -33.4461937
rtoes  4.173678213 19.5771266 -102.2861703
lfemur  -5.29224062 -15.90923023 -22.16966629
ltibia  5.611476898 -0.8094938397 9.799916267
lfoot  0.7617963552 -21.4354763 37.18042374
ltoes  -8.554406996 -18.14632105 -115.7796629
